<svg id="Layer_35" enable-background="new 0 0 64 64" height="512" viewBox="0 0 64 64" width="512" xmlns="http://www.w3.org/2000/svg"><g><path d="m46 23h-28v8c0 7.72 6.28 14 14 14s14-6.28 14-14z"/><path d="m47.139 10.776-4.584 3.056c-.169.113-.363.168-.555.168-.258 0-.514-.1-.707-.293l-2-2c-.337-.337-.39-.865-.125-1.262l3.24-4.86c-1.671-1.135-3.584-1.933-5.642-2.319l-1.786 8.93c-.093.467-.503.804-.98.804h-4c-.477 0-.887-.337-.98-.804l-1.786-8.93c-1.775.333-3.435.983-4.932 1.883l3.53 5.295c.265.396.212.925-.125 1.262l-2 2c-.193.194-.449.294-.707.294-.192 0-.386-.055-.555-.168l-5.295-3.53c-1.193 1.984-1.937 4.26-2.099 6.698h33.899c-.15-2.244-.78-4.356-1.811-6.224z"/><path d="m13 19h38v2h-38z"/><path d="m48 31c0 .627-.046 1.243-.116 1.852 1.221-.38 2.116-1.507 2.116-2.852 0-1.302-.839-2.402-2-2.816z"/><path d="m23.713 10.873-3.057-4.587c-.875.7-1.67 1.494-2.369 2.369l4.587 3.057z"/><path d="m42.127 11.713 3.92-2.613c-.611-.825-1.303-1.584-2.067-2.267l-2.693 4.04z"/><path d="m33.181 11 1.592-7.961c-.258-.013-.512-.039-.773-.039h-4c-.261 0-.515.026-.773.039l1.592 7.961z"/><path d="m16 47h-2c-2.757 0-5 2.243-5 5v9h3v-5c0-.553.447-1 1-1h3z"/><path d="m14 57h36v4h-36z"/><path d="m14 30c0 1.345.895 2.472 2.116 2.852-.07-.609-.116-1.225-.116-1.852v-3.816c-1.161.414-2 1.514-2 2.816z"/><path d="m44 47h2v8h-2z"/><path d="m50 47h-2v8h3c.553 0 1 .447 1 1v5h3v-9c0-2.757-2.243-5-5-5z"/><path d="m25.08 47h-3.08v8h20v-8h-3.08c-.488 3.386-3.401 6-6.92 6s-6.432-2.614-6.92-6z"/><path d="m18 47h2v8h-2z"/><path d="m36.899 47h-9.798c.465 2.279 2.484 4 4.899 4s4.434-1.721 4.899-4z"/></g></svg>