<?xml version="1.0" encoding="UTF-8" standalone="no"?>
<!DOCTYPE svg PUBLIC "-//W3C//DTD SVG 1.1//EN" "http://www.w3.org/Graphics/SVG/1.1/DTD/svg11.dtd">
<svg version="1.1" xmlns="http://www.w3.org/2000/svg" xmlns:xlink="http://www.w3.org/1999/xlink" preserveAspectRatio="xMidYMid meet" viewBox="0 0 512 512" width="512" height="512"><defs><path d="M0 256C0 397.16 114.84 512 256 512C397.16 512 512 397.16 512 256C512 114.84 397.16 0 256 0C114.84 0 0 114.84 0 256ZM247.08 340.41C242.92 344.57 237.46 346.67 232 346.67C226.54 346.67 221.08 344.57 216.92 340.41C209.98 333.48 154.52 278.02 147.59 271.08C139.24 262.74 139.24 249.26 147.59 240.92C155.93 232.57 169.41 232.57 177.75 240.92C181.37 244.53 199.45 262.62 232 295.17C306.15 221.02 347.35 179.82 355.59 171.59C363.93 163.24 377.41 163.24 385.75 171.59C394.09 179.93 394.09 193.41 385.75 201.75C358.02 229.48 260.95 326.55 247.08 340.41Z" id="b4zeKp7tm"></path></defs><g><g><g><use xlink:href="#b4zeKp7tm" opacity="1" fill="#5072e0" fill-opacity="1"></use><g><use xlink:href="#b4zeKp7tm" opacity="1" fill-opacity="0" stroke="#000000" stroke-width="1" stroke-opacity="0"></use></g></g></g></g></svg>