<?xml version="1.0" encoding="UTF-8" standalone="no"?>
<!DOCTYPE svg PUBLIC "-//W3C//DTD SVG 1.1//EN" "http://www.w3.org/Graphics/SVG/1.1/DTD/svg11.dtd">
<svg version="1.1" xmlns="http://www.w3.org/2000/svg" xmlns:xlink="http://www.w3.org/1999/xlink" preserveAspectRatio="xMidYMid meet" viewBox="0 0 512 512" width="512" height="512"><defs><path d="M397.62 83.21C414.72 66.11 414.72 38.41 397.62 21.31C380.52 4.21 352.82 4.21 335.73 21.31C313.57 41.41 136.33 202.23 114.18 222.33C104.94 231.57 100.86 243.91 101.62 256.01C100.86 268.11 104.94 280.46 114.18 289.69C136.33 309.79 313.59 470.59 335.75 490.69C352.85 507.79 380.54 507.79 397.64 490.69C414.74 473.59 414.74 445.89 397.64 428.79C384.94 417.27 321.45 359.67 207.16 255.99C321.44 152.32 384.92 94.73 397.62 83.21Z" id="d13mhsi3Tu"></path></defs><g><g><g><use xlink:href="#d13mhsi3Tu" opacity="1" fill="#000000" fill-opacity="1"></use><g><use xlink:href="#d13mhsi3Tu" opacity="1" fill-opacity="0" stroke="#000000" stroke-width="1" stroke-opacity="0"></use></g></g></g></g></svg>