<?xml version="1.0" encoding="UTF-8" standalone="no"?>
<!DOCTYPE svg PUBLIC "-//W3C//DTD SVG 1.1//EN" "http://www.w3.org/Graphics/SVG/1.1/DTD/svg11.dtd">
<svg version="1.1" xmlns="http://www.w3.org/2000/svg" xmlns:xlink="http://www.w3.org/1999/xlink" preserveAspectRatio="xMidYMid meet" viewBox="0 0 512 512" width="512" height="512"><defs><path d="M200.28 142.68C200.28 142.68 200.28 142.68 200.28 142.68C182.84 150.7 173.15 155.16 171.21 156.05C171.21 156.05 171.21 156.05 171.21 156.05C163.19 138.61 158.74 128.93 157.85 126.99C157.85 126.99 157.85 126.99 157.85 126.99C175.29 118.97 184.99 114.51 186.92 113.62C186.92 113.62 186.92 113.62 186.92 113.62C194.94 131.06 199.39 140.75 200.28 142.68Z" id="b6a6oVPoZ"></path><path d="M215.98 100.3L229.36 129.35L248.21 120.7L282.21 134.14L82.66 227.24L51.95 210.79L83.95 196.12L70.61 167.02L0 199.43L0 293.83L96 343.51L96 270.71L160 304.98L160 384.23L247.89 426.1L512 294.06L512 190.54L247.26 85.9L215.98 100.3ZM32 274.49L32 236.42L64 253.56L64 290.97L32 274.49ZM117.89 246.1L323.2 150.31L367.01 167.62L155.55 266.28L117.89 246.1ZM192 364.09L192 322.14L231.71 343.42L231.71 382.97L192 364.09ZM190.75 285.16L408 183.82L457.98 203.58L247.71 315.67L190.75 285.16ZM263.71 382.42L263.71 343.43L480 228.09L480 274.28L263.71 382.42Z" id="c4AKiLcbx1"></path><path d="M142.11 169.39C142.11 169.39 142.11 169.39 142.11 169.39C124.67 177.41 114.97 181.86 113.04 182.76C113.04 182.76 113.04 182.76 113.04 182.76C105.02 165.32 100.57 155.63 99.68 153.7C99.68 153.7 99.68 153.7 99.68 153.7C117.12 145.68 126.81 141.22 128.75 140.33C128.75 140.33 128.75 140.33 128.75 140.33C136.77 157.77 141.22 167.45 142.11 169.39Z" id="d8xhJCr8Q1"></path></defs><g><g><g><use xlink:href="#b6a6oVPoZ" opacity="1" fill="#ffffff" fill-opacity="1"></use><g><use xlink:href="#b6a6oVPoZ" opacity="1" fill-opacity="0" stroke="#000000" stroke-width="1" stroke-opacity="0"></use></g></g><g><use xlink:href="#c4AKiLcbx1" opacity="1" fill="#ffffff" fill-opacity="1"></use><g><use xlink:href="#c4AKiLcbx1" opacity="1" fill-opacity="0" stroke="#000000" stroke-width="1" stroke-opacity="0"></use></g></g><g><use xlink:href="#d8xhJCr8Q1" opacity="1" fill="#ffffff" fill-opacity="1"></use><g><use xlink:href="#d8xhJCr8Q1" opacity="1" fill-opacity="0" stroke="#000000" stroke-width="1" stroke-opacity="0"></use></g></g></g></g></svg>