<?xml version="1.0" encoding="UTF-8" standalone="no"?>
<!DOCTYPE svg PUBLIC "-//W3C//DTD SVG 1.1//EN" "http://www.w3.org/Graphics/SVG/1.1/DTD/svg11.dtd">
<svg version="1.1" xmlns="http://www.w3.org/2000/svg" xmlns:xlink="http://www.w3.org/1999/xlink" preserveAspectRatio="xMidYMid meet" viewBox="0 0 512 512" width="512" height="512"><defs><path d="M509.87 257.77C509.87 398.08 395.64 512 254.94 512C114.23 512 0 398.08 0 257.77C0 117.46 114.23 3.55 254.94 3.55C395.64 3.55 509.87 117.46 509.87 257.77Z" id="la8AaUhYO"></path><path d="M205.15 152.59C189.24 159.91 180.39 163.98 178.62 164.79C178.62 164.79 178.62 164.79 178.62 164.79C171.3 148.87 167.24 140.04 166.43 138.27C166.43 138.27 166.43 138.27 166.43 138.27C182.35 130.95 191.2 126.88 192.96 126.07C192.96 126.07 192.96 126.07 192.96 126.07C200.28 141.98 204.34 150.83 205.15 152.59C205.15 152.59 205.15 152.59 205.15 152.59Z" id="cwKykmJcz"></path><path d="M205.15 152.59C189.24 159.91 180.39 163.98 178.62 164.79C178.62 164.79 178.62 164.79 178.62 164.79C171.3 148.87 167.24 140.04 166.43 138.27C166.43 138.27 166.43 138.27 166.43 138.27C182.35 130.95 191.2 126.88 192.96 126.07C192.96 126.07 192.96 126.07 192.96 126.07C200.28 141.98 204.34 150.83 205.15 152.59C205.15 152.59 205.15 152.59 205.15 152.59Z" id="a15kni756P"></path><path d="M231.69 140.42L248.89 132.53L279.92 144.79L97.82 229.75L69.79 214.74L98.99 201.36L86.82 174.8L22.38 204.38L22.38 290.52L109.99 335.86L109.99 269.42L168.39 300.7L168.39 373.02L248.6 411.23L489.62 290.73L489.62 196.26L248.02 100.77L219.48 113.91L231.69 140.42ZM51.59 238.13L80.79 253.77L80.79 287.91L51.59 272.87L51.59 238.13ZM317.32 159.55L357.3 175.35L164.33 265.38L129.97 246.97L317.32 159.55ZM197.6 316.36L233.83 335.78L233.83 371.87L197.6 354.64L197.6 316.36ZM394.71 190.13L440.32 208.16L248.43 310.45L196.46 282.61L394.71 190.13ZM263.04 335.79L460.41 230.53L460.41 272.68L263.04 371.37L263.04 335.79Z" id="b2jxGQZUG"></path><path d="M231.69 140.42L248.89 132.53L279.92 144.79L97.82 229.75L69.79 214.74L98.99 201.36L86.82 174.8L22.38 204.38L22.38 290.52L109.99 335.86L109.99 269.42L168.39 300.7L168.39 373.02L248.6 411.23L489.62 290.73L489.62 196.26L248.02 100.77L219.48 113.91L231.69 140.42ZM51.59 238.13L80.79 253.77L80.79 287.91L51.59 272.87L51.59 238.13ZM317.32 159.55L357.3 175.35L164.33 265.38L129.97 246.97L317.32 159.55ZM197.6 316.36L233.83 335.78L233.83 371.87L197.6 354.64L197.6 316.36ZM394.71 190.13L440.32 208.16L248.43 310.45L196.46 282.61L394.71 190.13ZM263.04 335.79L460.41 230.53L460.41 272.68L263.04 371.37L263.04 335.79Z" id="aCagBzohk"></path><path d="M152.07 176.96C136.15 184.28 127.3 188.34 125.54 189.16C125.54 189.16 125.54 189.16 125.54 189.16C118.22 173.25 114.16 164.41 113.35 162.64C113.35 162.64 113.35 162.64 113.35 162.64C129.26 155.33 138.11 151.26 139.88 150.44C139.88 150.44 139.88 150.44 139.88 150.44C147.19 166.36 151.26 175.19 152.07 176.96C152.07 176.96 152.07 176.96 152.07 176.96Z" id="a7WL2e0fVL"></path><path d="M152.07 176.96C136.15 184.28 127.3 188.34 125.54 189.16C125.54 189.16 125.54 189.16 125.54 189.16C118.22 173.25 114.16 164.41 113.35 162.64C113.35 162.64 113.35 162.64 113.35 162.64C129.26 155.33 138.11 151.26 139.88 150.44C139.88 150.44 139.88 150.44 139.88 150.44C147.19 166.36 151.26 175.19 152.07 176.96C152.07 176.96 152.07 176.96 152.07 176.96Z" id="buN5p8sb"></path></defs><g><g><g><use xlink:href="#la8AaUhYO" opacity="1" fill="#5072e0" fill-opacity="1"></use></g><g><use xlink:href="#cwKykmJcz" opacity="1" fill="#ffffff" fill-opacity="1"></use><g><use xlink:href="#cwKykmJcz" opacity="1" fill-opacity="0" stroke="#000000" stroke-width="1" stroke-opacity="0"></use></g></g><g><use xlink:href="#a15kni756P" opacity="1" fill="#000000" fill-opacity="0"></use><g><use xlink:href="#a15kni756P" opacity="1" fill-opacity="0" stroke="#000000" stroke-width="1" stroke-opacity="0"></use></g></g><g><use xlink:href="#b2jxGQZUG" opacity="1" fill="#ffffff" fill-opacity="1"></use><g><use xlink:href="#b2jxGQZUG" opacity="1" fill-opacity="0" stroke="#000000" stroke-width="1" stroke-opacity="0"></use></g></g><g><use xlink:href="#aCagBzohk" opacity="1" fill="#000000" fill-opacity="0"></use><g><use xlink:href="#aCagBzohk" opacity="1" fill-opacity="0" stroke="#000000" stroke-width="1" stroke-opacity="0"></use></g></g><g><use xlink:href="#a7WL2e0fVL" opacity="1" fill="#ffffff" fill-opacity="1"></use><g><use xlink:href="#a7WL2e0fVL" opacity="1" fill-opacity="0" stroke="#000000" stroke-width="1" stroke-opacity="0"></use></g></g><g><use xlink:href="#buN5p8sb" opacity="1" fill="#000000" fill-opacity="0"></use><g><use xlink:href="#buN5p8sb" opacity="1" fill-opacity="0" stroke="#000000" stroke-width="1" stroke-opacity="0"></use></g></g></g></g></svg>