<?xml version="1.0" encoding="UTF-8" standalone="no"?>
<!DOCTYPE svg PUBLIC "-//W3C//DTD SVG 1.1//EN" "http://www.w3.org/Graphics/SVG/1.1/DTD/svg11.dtd">
<svg version="1.1" xmlns="http://www.w3.org/2000/svg" xmlns:xlink="http://www.w3.org/1999/xlink" preserveAspectRatio="xMidYMid meet" viewBox="0 0 512 512" width="512" height="512"><defs><path d="M217.02 377.24C212.92 377.24 209.33 378.79 206.25 381.86C203.17 384.94 201.64 388.53 201.64 392.63C201.64 401.86 201.64 475.72 201.64 484.95C201.64 489.05 203.18 492.64 206.25 495.72C209.33 498.79 212.92 500.33 217.02 500.33C226.25 500.33 300.1 500.33 309.33 500.33C313.43 500.33 317.03 498.79 320.1 495.72C323.18 492.64 324.72 489.05 324.72 484.95C324.72 475.72 324.72 401.86 324.72 392.63C324.72 388.53 323.19 384.94 320.1 381.86C317.03 378.78 313.43 377.24 309.33 377.24C290.87 377.24 226.25 377.24 217.02 377.24Z" id="aZsjey6jc"></path><path d="M389.73 51.85C373.07 38.51 354.34 27.87 333.57 19.92C312.8 11.98 292.16 8 271.64 8C193.69 8 134.2 42.11 93.17 110.32C91.12 113.65 90.42 117.24 91.06 121.08C91.7 124.93 93.69 128.13 97.02 130.7C103.33 135.51 153.79 173.97 160.1 178.78C163.44 180.83 166.64 181.85 169.72 181.85C174.34 181.85 178.31 179.8 181.65 175.7C200.11 152.62 213.83 137.88 222.8 131.46C233.83 124.03 247.67 120.31 264.34 120.31C279.98 120.31 293.76 124.42 305.69 132.62C317.61 140.82 323.57 150.31 323.57 161.08C323.57 173.13 320.37 182.88 313.96 190.31C307.55 197.75 296.77 204.93 281.64 211.85C261.65 220.83 243.3 234.74 226.64 253.59C209.97 272.43 201.64 292.5 201.64 313.78C201.64 315.51 201.64 329.36 201.64 331.09C201.64 335.97 202.98 340.77 205.68 345.52C208.37 350.26 211.64 352.63 215.49 352.63C224.72 352.63 298.57 352.63 307.8 352.63C311.9 352.63 315.49 350.65 318.57 346.66C321.64 342.7 323.19 338.53 323.19 334.18C323.19 327.77 326.71 319.17 333.76 308.41C340.81 297.64 349.59 289.29 360.11 283.39C370.11 277.75 377.92 273.21 383.57 269.74C389.22 266.29 396.59 260.7 405.69 253.01C414.8 245.31 421.85 237.68 426.84 230.12C431.85 222.56 436.34 212.75 440.31 200.69C444.29 188.64 446.28 175.69 446.28 161.85C446.27 140.56 441.01 120.24 430.51 100.89C419.99 81.52 406.4 65.18 389.73 51.85Z" id="b4KZxHZfKC"></path></defs><g><g><g><use xlink:href="#aZsjey6jc" opacity="1" fill="#ffffff" fill-opacity="1"></use><g><use xlink:href="#aZsjey6jc" opacity="1" fill-opacity="0" stroke="#000000" stroke-width="1" stroke-opacity="0"></use></g></g><g><use xlink:href="#b4KZxHZfKC" opacity="1" fill="#ffffff" fill-opacity="1"></use><g><use xlink:href="#b4KZxHZfKC" opacity="1" fill-opacity="0" stroke="#000000" stroke-width="1" stroke-opacity="0"></use></g></g></g></g></svg>