<?xml version="1.0" encoding="UTF-8" standalone="no"?>
<!DOCTYPE svg PUBLIC "-//W3C//DTD SVG 1.1//EN" "http://www.w3.org/Graphics/SVG/1.1/DTD/svg11.dtd">
<svg version="1.1" xmlns="http://www.w3.org/2000/svg" xmlns:xlink="http://www.w3.org/1999/xlink" preserveAspectRatio="xMidYMid meet" viewBox="0 0 512 512" width="512" height="512"><defs><path d="M0 256C0 397.16 114.84 512 256 512C397.16 512 512 397.16 512 256C512 114.84 397.16 0 256 0C114.84 0 0 114.84 0 256ZM234.67 384C234.67 372.22 244.22 362.67 256 362.67C267.78 362.67 277.33 372.22 277.33 384C277.33 395.78 267.78 405.33 256 405.33C244.22 405.33 234.67 395.78 234.67 384ZM277.33 289.09C277.33 290.05 277.33 297.71 277.33 298.67C277.33 310.44 267.8 320 256 320C244.2 320 234.67 310.44 234.67 298.67C234.67 297.71 234.67 290.05 234.67 289.09C234.67 264.19 249.3 241.37 271.89 230.93C293.63 220.93 309.33 194.37 309.33 181.33C309.33 151.94 285.42 128 256 128C226.58 128 202.67 151.94 202.67 181.33C202.67 193.11 193.13 202.67 181.33 202.67C169.54 202.67 160 193.11 160 181.33C160 128.41 203.07 85.33 256 85.33C308.93 85.33 352 128.41 352 181.33C352 210.16 327 252.52 289.77 269.7C282.22 273.17 277.33 280.79 277.33 289.09Z" id="idmihurpn"></path></defs><g><g><g><use xlink:href="#idmihurpn" opacity="1" fill="#f7c33c" fill-opacity="1"></use><g><use xlink:href="#idmihurpn" opacity="1" fill-opacity="0" stroke="#000000" stroke-width="1" stroke-opacity="0"></use></g></g></g></g></svg>