<?xml version="1.0" encoding="UTF-8" standalone="no"?>
<!DOCTYPE svg PUBLIC "-//W3C//DTD SVG 1.1//EN" "http://www.w3.org/Graphics/SVG/1.1/DTD/svg11.dtd">
<svg version="1.1" xmlns="http://www.w3.org/2000/svg" xmlns:xlink="http://www.w3.org/1999/xlink" preserveAspectRatio="xMidYMid meet" viewBox="0 0 512 512" width="512" height="512"><defs><path d="M114.38 21.31C131.48 4.21 159.18 4.21 176.27 21.31C198.43 41.41 375.67 202.23 397.82 222.33C407.06 231.57 411.14 243.91 410.38 256.01C411.14 268.11 407.06 280.46 397.82 289.69C375.67 309.79 198.41 470.59 176.25 490.69C159.15 507.79 131.46 507.79 114.36 490.69C97.26 473.59 97.26 445.89 114.36 428.79C127.06 417.27 190.55 359.67 304.84 255.99C190.56 152.32 127.08 94.73 114.38 83.21C97.28 66.11 97.28 38.41 114.38 21.31Z" id="b46FQm6ceC"></path><path d="M114.38 21.31C131.48 4.21 159.18 4.21 176.27 21.31C198.43 41.41 375.67 202.23 397.82 222.33C407.06 231.57 411.14 243.91 410.38 256.01C411.14 268.11 407.06 280.46 397.82 289.69C375.67 309.79 198.41 470.59 176.25 490.69C159.15 507.79 131.46 507.79 114.36 490.69C97.26 473.59 97.26 445.89 114.36 428.79C127.06 417.27 190.55 359.67 304.84 255.99C190.56 152.32 127.08 94.73 114.38 83.21C97.28 66.11 97.28 38.41 114.38 21.31Z" id="b4xi8yn72"></path></defs><g><g><g><use xlink:href="#b46FQm6ceC" opacity="1" fill="#ffffff" fill-opacity="1"></use><g><use xlink:href="#b46FQm6ceC" opacity="1" fill-opacity="0" stroke="#000000" stroke-width="1" stroke-opacity="0"></use></g></g><g><use xlink:href="#b4xi8yn72" opacity="1" fill="#ffffff" fill-opacity="1"></use><g><use xlink:href="#b4xi8yn72" opacity="1" fill-opacity="0" stroke="#000000" stroke-width="1" stroke-opacity="0"></use></g></g></g></g></svg>