<?xml version="1.0" encoding="UTF-8" standalone="no"?>
<!DOCTYPE svg PUBLIC "-//W3C//DTD SVG 1.1//EN" "http://www.w3.org/Graphics/SVG/1.1/DTD/svg11.dtd">
<svg version="1.1" xmlns="http://www.w3.org/2000/svg" xmlns:xlink="http://www.w3.org/1999/xlink" preserveAspectRatio="xMidYMid meet" viewBox="0 0 512 512" width="512" height="512"><defs><path d="M374.97 176.19L127.53 176.19C127.53 218.61 127.53 242.17 127.53 246.89C127.53 315.11 183.03 370.61 251.25 370.61C319.48 370.61 374.97 315.11 374.97 246.89C374.97 237.46 374.97 213.9 374.97 176.19Z" id="c305aySNSg"></path><path d="M344.53 95.17C343.03 96.17 341.32 96.66 339.62 96.66C337.34 96.66 335.08 95.77 333.38 94.07C331.61 92.3 317.47 78.16 315.7 76.39C312.72 73.42 312.26 68.75 314.6 65.24C317.46 60.95 340.37 26.59 343.23 22.29C328.46 12.26 311.56 5.21 293.37 1.8C291.79 9.69 279.17 72.82 277.59 80.72C276.77 84.84 273.14 87.82 268.93 87.82C265.39 87.82 237.11 87.82 233.58 87.82C229.36 87.82 225.74 84.84 224.92 80.72C223.34 72.82 210.71 9.69 209.14 1.8C193.45 4.74 178.78 10.49 165.55 18.44C168.67 23.12 193.63 60.55 196.75 65.23C199.09 68.73 198.62 73.41 195.64 76.38C193.87 78.15 179.73 92.29 177.97 94.06C176.26 95.77 174 96.66 171.72 96.66C170.02 96.66 168.31 96.17 166.81 95.17C162.14 92.05 124.7 67.1 120.02 63.98C109.48 81.51 102.9 101.62 101.47 123.17C131.43 123.17 371.08 123.17 401.04 123.17C399.72 103.34 394.15 84.67 385.04 68.17C376.94 73.57 348.58 92.47 344.53 95.17Z" id="bcknYz3Pb"></path><path d="M83.35 140.84L419.16 140.84L419.16 158.52L83.35 158.52L83.35 140.84Z" id="d2Pvo86tl"></path><path d="M392.65 246.89C392.65 252.43 392.24 257.87 391.62 263.25C402.41 259.9 410.32 249.94 410.32 238.05C410.32 226.54 402.91 216.82 392.65 213.17C392.65 219.91 392.65 240.14 392.65 246.89Z" id="b2CNrxZbLN"></path><path d="M178.02 69.02C161.81 44.7 152.81 31.19 151.01 28.49C143.27 34.67 136.25 41.69 130.07 49.42C132.77 51.22 146.28 60.23 170.61 76.44L178.02 69.02Z" id="c3iT0eNPHR"></path><path d="M340.75 76.45C361.53 62.59 373.08 54.89 375.39 53.36C369.99 46.06 363.87 39.36 357.12 33.32C355.53 35.7 347.6 47.6 333.32 69.02L340.75 76.45Z" id="dmnOpkmHc"></path><path d="M261.69 70.15C270.13 27.93 274.82 4.48 275.76 -0.21C273.48 -0.32 271.23 -0.55 268.93 -0.55C265.39 -0.55 237.11 -0.55 233.58 -0.55C231.27 -0.55 229.03 -0.32 226.75 -0.21C227.69 4.48 232.38 27.93 240.82 70.15L261.69 70.15Z" id="a5XnTdTgFg"></path><path d="M109.86 388.28C99.26 388.28 93.36 388.28 92.19 388.28C67.82 388.28 48 408.1 48 432.47C48 437.77 48 464.28 48 512L74.51 512C74.51 485.49 74.51 470.76 74.51 467.81C74.51 462.93 78.46 458.98 83.35 458.98C85.12 458.98 93.95 458.98 109.86 458.98L109.86 388.28Z" id="c5matJ9uPP"></path><path d="M92.19 476.65L410.32 476.65L410.32 512L92.19 512L92.19 476.65Z" id="avSHwexGM"></path><path d="M110.88 263.25C110.27 257.87 109.86 252.43 109.86 246.89C109.86 243.52 109.86 216.54 109.86 213.17C99.6 216.82 92.19 226.54 92.19 238.05C92.19 249.94 100.09 259.9 110.88 263.25Z" id="dxBX6LOFE"></path><path d="M357.3 388.28L374.97 388.28L374.97 458.98L357.3 458.98L357.3 388.28Z" id="a1f53Szfzn"></path><path d="M392.65 388.28L392.65 458.98C408.55 458.98 417.39 458.98 419.16 458.98C424.04 458.98 427.99 462.93 427.99 467.81C427.99 470.76 427.99 485.49 427.99 512L454.51 512C454.51 464.28 454.51 437.77 454.51 432.47C454.51 408.1 434.68 388.28 410.32 388.28C407.96 388.28 402.07 388.28 392.65 388.28Z" id="d1iwB3ZVBl"></path><path d="M162.88 388.28L162.88 458.98L339.62 458.98L339.62 388.28C323.29 388.28 314.22 388.28 312.41 388.28C308.09 418.2 282.35 441.3 251.25 441.3C220.16 441.3 194.41 418.2 190.1 388.28C186.47 388.28 177.4 388.28 162.88 388.28Z" id="b3h0YKfWG"></path><path d="M127.53 388.28L145.21 388.28L145.21 458.98L127.53 458.98L127.53 388.28Z" id="ae77BjNx"></path><path d="M207.96 388.28C212.07 408.42 229.91 423.63 251.25 423.63C272.59 423.63 290.44 408.42 294.55 388.28C277.23 388.28 216.62 388.28 207.96 388.28Z" id="a2dfgGEPU"></path></defs><g><g><g><use xlink:href="#c305aySNSg" opacity="1" fill="#ffffff" fill-opacity="1"></use><g><use xlink:href="#c305aySNSg" opacity="1" fill-opacity="0" stroke="#000000" stroke-width="1" stroke-opacity="0"></use></g></g><g><use xlink:href="#bcknYz3Pb" opacity="1" fill="#ffffff" fill-opacity="1"></use><g><use xlink:href="#bcknYz3Pb" opacity="1" fill-opacity="0" stroke="#000000" stroke-width="1" stroke-opacity="0"></use></g></g><g><use xlink:href="#d2Pvo86tl" opacity="1" fill="#ffffff" fill-opacity="1"></use><g><use xlink:href="#d2Pvo86tl" opacity="1" fill-opacity="0" stroke="#000000" stroke-width="1" stroke-opacity="0"></use></g></g><g><use xlink:href="#b2CNrxZbLN" opacity="1" fill="#ffffff" fill-opacity="1"></use><g><use xlink:href="#b2CNrxZbLN" opacity="1" fill-opacity="0" stroke="#000000" stroke-width="1" stroke-opacity="0"></use></g></g><g><use xlink:href="#c3iT0eNPHR" opacity="1" fill="#ffffff" fill-opacity="1"></use><g><use xlink:href="#c3iT0eNPHR" opacity="1" fill-opacity="0" stroke="#000000" stroke-width="1" stroke-opacity="0"></use></g></g><g><use xlink:href="#dmnOpkmHc" opacity="1" fill="#ffffff" fill-opacity="1"></use><g><use xlink:href="#dmnOpkmHc" opacity="1" fill-opacity="0" stroke="#000000" stroke-width="1" stroke-opacity="0"></use></g></g><g><use xlink:href="#a5XnTdTgFg" opacity="1" fill="#ffffff" fill-opacity="1"></use><g><use xlink:href="#a5XnTdTgFg" opacity="1" fill-opacity="0" stroke="#000000" stroke-width="1" stroke-opacity="0"></use></g></g><g><use xlink:href="#c5matJ9uPP" opacity="1" fill="#ffffff" fill-opacity="1"></use><g><use xlink:href="#c5matJ9uPP" opacity="1" fill-opacity="0" stroke="#000000" stroke-width="1" stroke-opacity="0"></use></g></g><g><use xlink:href="#avSHwexGM" opacity="1" fill="#ffffff" fill-opacity="1"></use><g><use xlink:href="#avSHwexGM" opacity="1" fill-opacity="0" stroke="#000000" stroke-width="1" stroke-opacity="0"></use></g></g><g><use xlink:href="#dxBX6LOFE" opacity="1" fill="#ffffff" fill-opacity="1"></use><g><use xlink:href="#dxBX6LOFE" opacity="1" fill-opacity="0" stroke="#000000" stroke-width="1" stroke-opacity="0"></use></g></g><g><use xlink:href="#a1f53Szfzn" opacity="1" fill="#ffffff" fill-opacity="1"></use><g><use xlink:href="#a1f53Szfzn" opacity="1" fill-opacity="0" stroke="#000000" stroke-width="1" stroke-opacity="0"></use></g></g><g><use xlink:href="#d1iwB3ZVBl" opacity="1" fill="#ffffff" fill-opacity="1"></use><g><use xlink:href="#d1iwB3ZVBl" opacity="1" fill-opacity="0" stroke="#000000" stroke-width="1" stroke-opacity="0"></use></g></g><g><use xlink:href="#b3h0YKfWG" opacity="1" fill="#ffffff" fill-opacity="1"></use><g><use xlink:href="#b3h0YKfWG" opacity="1" fill-opacity="0" stroke="#000000" stroke-width="1" stroke-opacity="0"></use></g></g><g><use xlink:href="#ae77BjNx" opacity="1" fill="#ffffff" fill-opacity="1"></use><g><use xlink:href="#ae77BjNx" opacity="1" fill-opacity="0" stroke="#000000" stroke-width="1" stroke-opacity="0"></use></g></g><g><use xlink:href="#a2dfgGEPU" opacity="1" fill="#ffffff" fill-opacity="1"></use><g><use xlink:href="#a2dfgGEPU" opacity="1" fill-opacity="0" stroke="#000000" stroke-width="1" stroke-opacity="0"></use></g></g></g></g></svg>