<?xml version="1.0" encoding="UTF-8" standalone="no"?>
<!DOCTYPE svg PUBLIC "-//W3C//DTD SVG 1.1//EN" "http://www.w3.org/Graphics/SVG/1.1/DTD/svg11.dtd">
<svg version="1.1" xmlns="http://www.w3.org/2000/svg" xmlns:xlink="http://www.w3.org/1999/xlink" preserveAspectRatio="xMidYMid meet" viewBox="0 0 512 512" width="512" height="512"><defs><path d="M90 421C90 448 90 463 90 466C90 474.28 96.72 481 105 481C144.2 481 457.8 481 497 481C505.28 481 512 474.28 512 466C512 427 512 115 512 76C512 67.72 505.28 61 497 61C492 61 467 61 422 61C422 52 422 47 422 46C422 37.72 415.28 31 407 31C398.72 31 392 37.72 392 46C392 47 392 52 392 61L316 61C316 52 316 47 316 46C316 37.72 309.28 31 301 31C292.72 31 286 37.72 286 46C286 47 286 52 286 61L211 61C211 52 211 47 211 46C211 37.72 204.28 31 196 31C187.72 31 181 37.72 181 46C181 47 181 52 181 61C135.4 61 110.07 61 105 61C96.72 61 90 67.72 90 76C90 85 90 157 90 166C90 276.55 44.06 361.6 5.4 394.48C0.55 398.52 -1.25 405.17 0.9 411.11C3.05 417.04 8.68 421 15 421C15 421 40 421 90 421ZM482 451L120 451L120 421C292.2 421 387.87 421 407 421C410.51 421 413.91 419.77 416.6 417.52C434.64 402.5 462.57 366.75 482 320.95C482 338.29 482 381.64 482 451ZM120 91L181 91C181 100 181 105 181 106C181 114.28 187.72 121 196 121C204.28 121 211 114.28 211 106C211 105 211 100 211 91L286 91C286 100 286 105 286 106C286 114.28 292.72 121 301 121C309.28 121 316 114.28 316 106C316 105 316 100 316 91L392 91C392 100 392 105 392 106C392 114.28 398.72 121 407 121C415.28 121 422 114.28 422 106C422 105 422 100 422 91L482 91L482 151L120 151L120 91ZM481.73 180.99C478.35 276.14 441.83 351.01 401.12 391C365.92 391 84.32 391 49.12 391C95.25 332.22 117.27 255.68 119.74 180.99C192.14 180.99 445.54 180.99 481.73 180.99Z" id="b3ZNcU2rpd"></path></defs><g><g><g><use xlink:href="#b3ZNcU2rpd" opacity="1" fill="#ffffff" fill-opacity="1"></use><g><use xlink:href="#b3ZNcU2rpd" opacity="1" fill-opacity="0" stroke="#000000" stroke-width="1" stroke-opacity="0"></use></g></g></g></g></svg>