<?xml version="1.0" encoding="UTF-8" standalone="no"?>
<!DOCTYPE svg PUBLIC "-//W3C//DTD SVG 1.1//EN" "http://www.w3.org/Graphics/SVG/1.1/DTD/svg11.dtd">
<svg version="1.1" xmlns="http://www.w3.org/2000/svg" xmlns:xlink="http://www.w3.org/1999/xlink" preserveAspectRatio="xMidYMid meet" viewBox="0 0 512 512" width="512" height="512"><defs><path d="M407 391.01C410.51 391.01 413.91 389.78 416.6 387.53C420.37 384.38 506.26 310.49 511.5 150.99C469.4 150.99 132.58 150.99 90.48 150.99C85.26 295.78 6.16 363.83 5.34 364.51C0.52 368.58 -1.25 375.23 0.91 381.15C3.07 387.05 8.68 391.01 14.98 391.01C14.98 391.01 367.79 391.01 407 391.01Z" id="bR9PnYCed"></path><path d="M421.99 60.99C421.99 51.99 421.99 46.99 421.99 45.99C421.99 37.59 415.39 30.99 406.99 30.99C398.59 30.99 391.99 37.59 391.99 45.99C391.99 46.99 391.99 51.99 391.99 60.99L315.99 60.99C315.99 51.99 315.99 46.99 315.99 45.99C315.99 37.59 309.39 30.99 300.99 30.99C292.59 30.99 285.99 37.59 285.99 45.99C285.99 46.99 285.99 51.99 285.99 60.99L210.99 60.99C210.99 51.99 210.99 46.99 210.99 45.99C210.99 37.59 204.39 30.99 195.98 30.99C187.58 30.99 180.98 37.59 180.98 45.99C180.98 46.99 180.98 51.99 180.98 60.99C135.98 60.99 110.98 60.99 105.98 60.99C97.58 60.99 90.98 67.59 90.98 75.99C90.98 78.99 90.98 93.99 90.98 120.99L512 120.99C512 93.99 512 78.99 512 75.99C512 67.59 505.4 60.99 497 60.99C487 60.99 462 60.99 421.99 60.99Z" id="g3S4F0AVA"></path><path d="M407 421.01C385.93 421.01 280.59 421.01 90.98 421.01C90.98 448.01 90.98 463.01 90.98 466.01C90.98 474.3 97.69 481.01 105.98 481.01C145.08 481.01 457.9 481.01 497 481.01C505.29 481.01 512 474.3 512 466.01C512 449.19 512 314.67 512 297.86C483.08 368.81 442.72 404.8 435.87 410.53C427.72 417.32 417.5 421.01 407 421.01Z" id="bo0U8J11y"></path></defs><g><g><g><use xlink:href="#bR9PnYCed" opacity="1" fill="#ffffff" fill-opacity="1"></use><g><use xlink:href="#bR9PnYCed" opacity="1" fill-opacity="0" stroke="#000000" stroke-width="1" stroke-opacity="0"></use></g></g><g><use xlink:href="#g3S4F0AVA" opacity="1" fill="#ffffff" fill-opacity="1"></use><g><use xlink:href="#g3S4F0AVA" opacity="1" fill-opacity="0" stroke="#000000" stroke-width="1" stroke-opacity="0"></use></g></g><g><use xlink:href="#bo0U8J11y" opacity="1" fill="#ffffff" fill-opacity="1"></use><g><use xlink:href="#bo0U8J11y" opacity="1" fill-opacity="0" stroke="#000000" stroke-width="1" stroke-opacity="0"></use></g></g></g></g></svg>