<?xml version="1.0" encoding="UTF-8" standalone="no"?>
<!DOCTYPE svg PUBLIC "-//W3C//DTD SVG 1.1//EN" "http://www.w3.org/Graphics/SVG/1.1/DTD/svg11.dtd">
<svg version="1.1" xmlns="http://www.w3.org/2000/svg" xmlns:xlink="http://www.w3.org/1999/xlink" preserveAspectRatio="xMidYMid meet" viewBox="0 0 512 512" width="512" height="512"><defs><path d="M478.92 80.65C469.1 90.42 420.02 139.31 331.66 227.31C306.13 201.78 291.94 187.59 289.1 184.75C281.53 177.18 269.26 177.18 261.68 184.75C244.42 202.01 106.34 340.1 89.08 357.36C81.5 364.93 81.5 377.21 89.08 384.78C92.86 388.57 97.82 390.46 102.79 390.46C107.75 390.46 112.72 388.57 116.5 384.78C127.09 374.19 180.06 321.23 275.39 225.89C300.91 251.41 315.09 265.58 317.92 268.42C325.49 275.99 337.73 276 345.32 268.45C361.42 252.42 490.19 124.16 506.29 108.13C513.88 100.57 513.91 88.29 506.35 80.7C498.78 73.11 486.52 73.09 478.92 80.65Z" id="be8wh9jJP"></path><path d="M38.79 449.94C38.79 205.58 38.79 69.82 38.79 42.67C38.79 31.95 30.11 23.27 19.39 23.27C8.68 23.27 0 31.95 0 42.67C0 85.33 0 426.67 0 469.33C0 480.05 8.68 488.73 19.39 488.73C66.65 488.73 444.7 488.73 491.96 488.73C502.67 488.73 511.35 480.05 511.35 469.33C511.35 458.62 502.67 449.94 491.96 449.94C431.54 449.94 280.48 449.94 38.79 449.94Z" id="baWRSZHa5"></path><path d="M347.15 74.34C336.44 74.34 327.76 83.03 327.76 93.74C327.76 104.45 336.44 113.13 347.15 113.13C355.56 113.13 397.58 113.13 473.21 113.13C473.21 188.77 473.21 230.79 473.21 239.2C473.21 249.9 481.89 258.59 492.61 258.59C503.32 258.59 512 249.9 512 239.19C512 224.65 512 108.28 512 93.74C512 83.03 503.32 74.34 492.61 74.34C463.51 74.34 361.7 74.34 347.15 74.34Z" id="b1xkmcGsg7"></path></defs><g><g><g><use xlink:href="#be8wh9jJP" opacity="1" fill="#ffffff" fill-opacity="1"></use><g><use xlink:href="#be8wh9jJP" opacity="1" fill-opacity="0" stroke="#000000" stroke-width="1" stroke-opacity="0"></use></g></g><g><use xlink:href="#baWRSZHa5" opacity="1" fill="#ffffff" fill-opacity="1"></use><g><use xlink:href="#baWRSZHa5" opacity="1" fill-opacity="0" stroke="#000000" stroke-width="1" stroke-opacity="0"></use></g></g><g><use xlink:href="#b1xkmcGsg7" opacity="1" fill="#ffffff" fill-opacity="1"></use><g><use xlink:href="#b1xkmcGsg7" opacity="1" fill-opacity="0" stroke="#000000" stroke-width="1" stroke-opacity="0"></use></g></g></g></g></svg>