<?xml version="1.0" encoding="UTF-8" standalone="no"?>
<!DOCTYPE svg PUBLIC "-//W3C//DTD SVG 1.1//EN" "http://www.w3.org/Graphics/SVG/1.1/DTD/svg11.dtd">
<svg version="1.1" xmlns="http://www.w3.org/2000/svg" xmlns:xlink="http://www.w3.org/1999/xlink" preserveAspectRatio="xMidYMid meet" viewBox="0 0 512 512" width="512" height="512"><defs><path d="M497 429.4C497 434.41 497 474.5 497 479.51C497 480.21 496.43 480.78 495.74 480.78C493.84 480.78 484.34 480.78 467.24 480.78C467.24 415.03 467.24 378.5 467.24 371.2C467.24 367.06 463.88 363.7 459.74 363.7C455.6 363.7 452.24 367.06 452.24 371.2C452.24 378.5 452.24 415.03 452.24 480.78L397.17 480.78C406.11 470.94 411.08 465.47 412.07 464.38C414.38 461.85 415.46 458.25 414.98 454.76C414.97 454.68 414.96 454.61 414.94 454.53C413.83 447.93 408.24 414.93 398.19 355.54L401.27 350.9C401.75 351.24 402.02 351.43 402.07 351.47C404.82 353.42 408.33 354.13 411.72 353.28C415.05 352.45 417.84 350.21 419.38 347.14C419.38 347.14 419.38 347.14 419.38 347.14L436.43 312.97C459.79 322.02 472.77 327.04 475.37 328.05C476.91 328.72 497 337.93 497 361.89C497 365.14 497 391.15 497 394.4C497 398.54 500.35 401.9 504.5 401.9C508.64 401.9 512 398.54 512 394.4C512 391.15 512 365.14 512 361.89C512 327.28 482.31 314.68 481.05 314.16C481 314.14 480.95 314.12 480.91 314.11C476.48 312.39 454.38 303.83 414.59 288.42C414.59 280.23 414.59 275.67 414.59 274.76C424.94 266.43 432.21 254.43 434.39 240.75C439.56 240.1 444.35 238.03 448.32 234.61C454.02 229.71 457.29 222.58 457.29 215.05C457.29 209.03 455.21 203.28 451.47 198.71C451.47 196.69 451.47 180.5 451.47 178.47C451.47 138.87 419.25 106.64 379.64 106.64C361.86 106.64 345.58 113.15 333.03 123.89C332.86 118.15 330.81 112.67 327.22 108.29C327.22 106.26 327.22 90.07 327.22 88.05C327.22 48.44 295 16.22 255.4 16.22C215.79 16.22 183.57 48.45 183.57 88.05C183.57 90.13 183.57 106.74 183.57 108.82C179.96 113.12 177.95 118.32 177.77 123.83C169.76 116.98 160.17 111.83 149.48 109.01C145.47 107.96 141.37 110.35 140.32 114.36C139.26 118.36 141.65 122.47 145.66 123.52C170.57 130.08 187.97 152.68 187.97 178.47C187.97 179.59 187.97 188.57 187.97 189.69C187.65 189.62 186.61 189.44 186.57 189.44C186.47 187.32 185.93 186.03 184.78 184.37C182.86 181.61 179.41 178.17 168.32 166.25C164.37 162 157.97 161.23 153.12 164.4C134.13 176.81 111.05 183.13 89.63 181.87C82.66 181.46 78.3 184.53 76.44 189.55C76.28 189.58 74.42 189.95 74.32 189.98C74.32 188.83 74.32 179.62 74.32 178.47C74.32 153.6 90.94 131.23 114.73 124.06C118.7 122.87 120.94 118.68 119.75 114.72C118.56 110.75 114.37 108.5 110.4 109.7C95.93 114.06 82.93 123.13 73.78 135.25C64.32 147.78 59.32 162.73 59.32 178.47C59.32 180.55 59.32 197.16 59.32 199.24C55.54 203.75 53.5 209.24 53.5 215.05C53.5 227.89 62.96 239.08 76.44 240.75C78.64 254.12 85.89 266.93 97.34 275.65C97.34 276.5 97.34 280.76 97.34 288.43C57.59 303.84 35.51 312.4 31.09 314.11C31.05 314.13 31 314.15 30.95 314.16C29.69 314.68 0 327.28 0 361.89C0 373.66 0 467.75 0 479.51C0 488.48 7.3 495.78 16.26 495.78C39.36 495.78 224.14 495.78 247.24 495.78C250.46 495.78 253.47 494.82 256 493.19C258.53 494.82 261.54 495.78 264.77 495.78C287.86 495.78 472.64 495.78 495.74 495.78C504.71 495.78 512 488.48 512 479.51C512 474.5 512 434.41 512 429.4C512 425.26 508.64 421.9 504.5 421.9C500.36 421.9 497 425.26 497 429.4ZM68.5 215.04C68.5 210.63 71.7 207.01 75.7 205.28C75.7 206.62 75.7 213.27 75.7 225.26C70.9 221.48 68.5 218.08 68.5 215.04ZM407.66 337.03C407.65 337.03 391.3 325.42 391.07 325.25C398.13 316.54 394.81 320.63 409.48 302.53C410.34 302.86 414.64 304.53 422.38 307.52C413.54 325.23 408.64 335.06 407.66 337.03ZM360.83 290.86C360.83 286.54 360.83 284.14 360.83 283.66C367.14 285.84 373.93 286.85 380.32 286.85C380.32 286.85 380.33 286.85 380.33 286.85C380.33 286.85 380.33 286.85 380.33 286.85C386.94 286.85 393.63 285.6 399.59 283.35C399.59 283.86 399.59 286.37 399.59 290.91L380.23 314.8L360.83 290.86ZM386.28 346.36L374.19 346.36L371.43 342.21L380.23 335.95L389.04 342.21L386.28 346.36ZM236.58 200.44C236.58 196.12 236.58 193.72 236.58 193.24C242.86 195.41 249.65 196.43 256.07 196.43C256.07 196.43 256.08 196.43 256.08 196.43C256.08 196.43 256.08 196.43 256.08 196.43C262.68 196.43 269.37 195.18 275.34 192.93C275.34 193.44 275.34 195.95 275.34 200.48L255.98 224.38L236.58 200.44ZM262.03 255.94L249.94 255.94L247.18 251.79L255.98 245.53L264.79 251.79L262.03 255.94ZM200.68 150.33C202.89 163.7 210.14 176.51 221.58 185.22C221.58 186.08 221.58 190.34 221.58 198C212.4 201.56 207.3 203.54 206.28 203.94C205.39 202.07 204.29 200.32 202.97 198.71C202.97 196.68 202.97 180.5 202.97 178.47C202.97 168.29 200.83 158.51 196.92 149.61C198.14 149.95 199.4 150.17 200.68 150.33ZM256.08 181.43C231.43 181.43 214.95 162.32 214.95 141.67C214.95 138.16 214.95 110.05 214.95 106.54C238.64 107.49 263.24 100.47 283.35 87.95C290.12 95.2 294.14 99.41 295.84 101.37C295.84 120.04 295.84 127.25 295.84 141.67C295.84 163.62 277.93 181.43 256.08 181.43ZM313.89 149.61C310 158.45 307.82 168.21 307.82 178.47C307.82 180.55 307.82 197.16 307.82 199.24C306.66 200.61 305.67 202.08 304.85 203.62C303.88 203.25 299.05 201.37 290.34 198C290.34 189.81 290.34 185.25 290.34 184.34C300.69 176.01 307.96 164.01 310.15 150.33C311.42 150.17 312.67 149.94 313.89 149.61ZM245.12 234.85C237.58 240.2 233.4 243.17 232.56 243.76C232.55 243.77 232.55 243.77 232.54 243.78C232.28 243.97 230.95 244.91 228.56 246.61L213.83 217.1L226.7 212.12L245.12 234.85ZM285.23 212.11L298.13 217.1L283.41 246.61C281.01 244.91 279.68 243.96 279.41 243.77C279.41 243.77 279.41 243.77 279.4 243.76C278.56 243.17 274.37 240.19 266.82 234.83L273.24 226.9L285.23 212.11ZM277.83 261.04C280.63 263.04 284.15 263.69 287.47 262.86C290.8 262.03 293.59 259.79 295.13 256.72C295.13 256.72 295.13 256.72 295.13 256.72C302.72 241.49 306.94 233.04 307.79 231.35C312.14 236.71 318.43 239.97 324.9 240.78C327.19 255.12 334.94 267.35 345.83 275.65C345.83 276.5 345.83 280.76 345.83 288.43L282.07 313.15L273.94 265.12L277.02 260.47C277.5 260.82 277.77 261.01 277.83 261.04ZM369.37 325.27C361.32 330.99 353.22 336.73 352.81 337.03C351.82 335.06 346.92 325.23 338.08 307.53L350.95 302.54C362 316.18 368.14 323.75 369.37 325.27ZM380.33 271.85C354.84 271.85 339.2 251.88 339.2 232.09C339.2 228.58 339.2 200.47 339.2 196.96C362.72 197.9 387.35 190.97 407.6 178.37C414.37 185.62 418.39 189.84 420.08 191.79C420.08 210.46 420.08 217.67 420.08 232.09C420.09 253.51 402.69 271.85 380.33 271.85ZM435.09 225.26C435.09 223.22 435.09 206.89 435.09 204.85C439.62 206.51 442.29 210.65 442.29 215.05C442.29 219.6 439.48 223.66 435.09 225.26ZM379.64 121.64C410.98 121.64 436.47 147.14 436.47 178.47C436.47 179.59 436.47 188.57 436.47 189.69C436.13 189.62 435.19 189.45 435.06 189.44C434.96 187.32 434.42 186.02 433.27 184.37C431.3 181.53 427.89 178.16 416.81 166.25C412.95 162.1 406.57 161.16 401.62 164.4C383.14 176.47 359.79 183.29 337.57 181.85C331.33 181.44 326.81 184.49 324.94 189.55C324.77 189.58 322.92 189.95 322.82 189.98C322.82 189.21 322.82 185.38 322.82 178.47C339.81 140.59 358.75 121.64 379.64 121.64ZM324.2 225.25C319.79 223.66 317 219.58 317 215.04C316.99 210.63 320.19 207.01 324.2 205.29C324.2 209.28 324.2 223.25 324.2 225.25ZM314.29 132.82C313.27 133.7 312.1 134.37 310.84 134.84C310.84 132.8 310.84 116.47 310.84 114.43C315.32 116.06 318.04 120.18 318.04 124.62C318.04 127.78 316.68 130.77 314.29 132.82ZM312.22 88.05C312.22 89.17 312.22 98.15 312.22 99.27C311.88 99.2 310.94 99.03 310.81 99.01C310.7 96.72 310.04 95.31 308.69 93.48C306.68 90.76 302.98 87.02 292.56 75.83C288.63 71.6 282.24 70.79 277.37 73.98C257.85 86.73 234.18 92.93 212.72 91.39C207.47 91 202.53 94.17 200.69 99.13C200.52 99.16 198.67 99.53 198.57 99.56C198.57 98.79 198.57 94.95 198.57 88.05C198.57 88.05 198.57 88.05 198.57 88.05C198.57 56.72 224.06 31.22 255.39 31.22C286.73 31.22 312.22 56.72 312.22 88.05ZM199.95 134.84C195.55 133.24 192.74 129.17 192.74 124.62C192.74 120.24 195.92 116.6 199.95 114.86C199.95 118.86 199.95 132.84 199.95 134.84ZM193.74 214.39C194.08 219.23 191.11 223.61 186.59 225.25C186.59 223.89 186.59 217.09 186.59 204.85C191.18 208.31 193.57 211.49 193.74 214.39ZM203.72 230.43C205.03 233.05 215.52 254.09 216.83 256.72C216.83 256.72 216.83 256.72 216.84 256.72C218.37 259.79 221.16 262.03 224.49 262.86C227.78 263.69 231.31 263.06 234.14 261.04C234.19 261.01 234.46 260.82 234.94 260.47L238.02 265.12L229.9 313.13L166.09 288.42L166.09 274.77C166.09 274.77 166.09 274.77 166.09 274.77C176.71 266.2 183.76 254.1 185.89 240.77C192.97 239.89 199.46 236.16 203.72 230.43ZM112.33 290.86C112.33 286.54 112.33 284.14 112.33 283.66C118.61 285.84 125.4 286.85 131.82 286.85C131.82 286.85 131.83 286.85 131.83 286.85C138.53 286.85 145.21 285.56 151.09 283.35C151.09 283.86 151.09 286.37 151.09 290.91L131.73 314.8L112.33 290.86ZM137.78 346.36L125.69 346.36L122.93 342.21L131.73 335.95L140.54 342.21L137.78 346.36ZM173.88 307.53L159.16 337.03C156.76 335.33 155.43 334.38 155.16 334.19C155.16 334.19 155.15 334.19 155.15 334.18C154.31 333.59 150.12 330.61 142.57 325.25L160.98 302.53L173.88 307.53ZM90.7 196.96C114.51 197.91 139.13 190.8 159.1 178.37C165.8 185.55 169.89 189.83 171.58 191.79C171.58 210.46 171.58 217.68 171.58 232.09C171.58 253.91 153.8 271.85 131.83 271.85C107.36 271.85 90.7 252.96 90.7 232.09C90.7 225.07 90.7 200.47 90.7 196.96ZM120.87 325.27C113.33 330.62 109.15 333.59 108.31 334.18C108.3 334.19 108.3 334.19 108.29 334.2C108.03 334.39 106.7 335.33 104.31 337.03L89.58 307.53L102.45 302.54L120.87 325.27ZM59.76 371.2C59.76 367.06 56.41 363.7 52.26 363.7C48.12 363.7 44.76 367.06 44.76 371.2C44.76 378.5 44.76 415.03 44.76 480.78C27.66 480.78 18.16 480.78 16.26 480.78C15.57 480.78 15 480.21 15 479.51C15 467.75 15 373.66 15 361.89C15 337.8 35.3 328.62 36.61 328.05C39.21 327.05 52.18 322.02 75.53 312.97C85.76 333.47 91.45 344.86 92.58 347.14C92.58 347.14 92.58 347.14 92.58 347.14C94.12 350.21 96.91 352.45 100.24 353.28C103.53 354.11 107.06 353.48 109.89 351.47C109.94 351.43 110.21 351.24 110.69 350.9L113.77 355.54C103.72 414.93 98.14 447.93 97.02 454.53C97.01 454.61 96.99 454.68 96.98 454.76C96.5 458.25 97.59 461.84 99.89 464.38C100.88 465.47 105.85 470.94 114.79 480.78L59.76 480.78C59.76 415.03 59.76 378.5 59.76 371.2ZM128 361.36L135.46 361.36L151.39 455.48L131.73 477.11L112.07 455.48L128 361.36ZM247.24 480.78C245.34 480.78 235.84 480.78 218.74 480.78C218.74 415.03 218.74 378.5 218.74 371.2C218.74 367.06 215.38 363.7 211.24 363.7C207.1 363.7 203.74 367.06 203.74 371.2C203.74 378.5 203.74 415.03 203.74 480.78L148.67 480.78C157.61 470.94 162.58 465.47 163.57 464.38C165.88 461.85 166.96 458.25 166.48 454.76C166.47 454.68 166.46 454.61 166.44 454.53C165.33 447.93 159.74 414.93 149.69 355.54L152.77 350.9C153.25 351.24 153.52 351.43 153.57 351.47C155.58 352.89 157.96 353.64 160.37 353.64C164.77 353.64 168.86 351.17 170.88 347.14C170.88 347.14 170.88 347.14 170.88 347.14L187.93 312.97C211.29 322.02 224.28 327.04 226.87 328.05C238.22 332.99 248.5 345.72 248.5 361.89C248.5 369.73 248.5 408.94 248.5 479.51C248.12 480.35 247.7 480.78 247.24 480.78ZM243.77 321.05C244.34 317.71 247.16 301 252.25 270.94L259.71 270.94C264.8 301.02 267.63 317.73 268.2 321.07C263.08 325.14 258.99 329.81 256 334.64C252.89 329.63 248.76 325 243.77 321.05ZM308.26 480.78C308.26 415.03 308.26 378.5 308.26 371.2C308.26 367.06 304.9 363.7 300.76 363.7C296.62 363.7 293.26 367.06 293.26 371.2C293.26 378.5 293.26 415.03 293.26 480.78C276.16 480.78 266.66 480.78 264.76 480.78C264.07 480.78 263.5 480.21 263.5 479.51C263.5 467.75 263.5 373.66 263.5 361.89C263.5 352.98 266.3 344.77 272.25 337.87C276.22 333.31 281.49 329.62 285.11 328.05C287.71 327.05 300.68 322.02 324.03 312.96C334.26 333.47 339.95 344.86 341.08 347.14C341.08 347.14 341.08 347.14 341.09 347.14C342.62 350.21 345.41 352.45 348.74 353.28C352.03 354.11 355.56 353.48 358.39 351.47C358.44 351.43 358.71 351.24 359.19 350.9L362.27 355.54C352.22 414.93 346.64 447.93 345.52 454.53C345.51 454.61 345.49 454.68 345.48 454.76C345 458.25 346.09 461.84 348.39 464.38C349.38 465.47 354.35 470.94 363.29 480.78L308.26 480.78L308.26 480.78ZM376.5 361.36L383.96 361.36L399.89 455.48L380.23 477.11L360.57 455.48L376.5 361.36Z" id="pCXZvzBlr"></path></defs><g><g><g><use xlink:href="#pCXZvzBlr" opacity="1" fill="#ffffff" fill-opacity="1"></use><g><use xlink:href="#pCXZvzBlr" opacity="1" fill-opacity="0" stroke="#000000" stroke-width="1" stroke-opacity="0"></use></g></g></g></g></svg>