<?xml version="1.0" encoding="UTF-8" standalone="no"?>
<!DOCTYPE svg PUBLIC "-//W3C//DTD SVG 1.1//EN" "http://www.w3.org/Graphics/SVG/1.1/DTD/svg11.dtd">
<svg version="1.1" xmlns="http://www.w3.org/2000/svg" xmlns:xlink="http://www.w3.org/1999/xlink" preserveAspectRatio="xMidYMid meet" viewBox="0 0 512 512" width="512" height="512"><defs><path d="M352 416L64 416L64 128L160 128L160 64C83.2 64 40.53 64 32 64C14.34 64 0 78.34 0 96C0 131.2 0 412.8 0 448C0 465.7 14.34 480 32 480C67.2 480 348.8 480 384 480C401.7 480 416 465.7 416 448C416 437.4 416 384.4 416 288.99L352 288.99L352 416Z" id="b1pJkwQgih"></path><path d="M377.6 35.2C372.8 31.55 366.27 30.98 360.86 33.7C355.42 36.42 352 41.95 352 48C352 51.2 352 67.2 352 96C323.2 96 307.2 96 304 96C206.94 96 128 174.95 128 272C128 279.43 133.12 285.89 140.32 287.59C141.54 287.87 142.78 288 144 288C149.95 288 155.55 284.67 158.3 279.17C158.68 278.42 161.7 272.4 162.08 271.65C186.62 222.53 235.97 192 290.88 192C294.95 192 315.33 192 352 192C352 220.8 352 236.8 352 240C352 246.05 355.42 251.59 360.83 254.31C366.24 257.03 372.77 256.45 377.6 252.8C390.4 243.2 492.8 166.4 505.6 156.8C509.63 153.79 512 149.03 512 144C512 138.98 509.63 134.21 505.6 131.2C480 112 390.4 44.8 377.6 35.2Z" id="dl5yMDVNL"></path></defs><g><g><g><use xlink:href="#b1pJkwQgih" opacity="1" fill="#ffffff" fill-opacity="1"></use><g><use xlink:href="#b1pJkwQgih" opacity="1" fill-opacity="0" stroke="#000000" stroke-width="1" stroke-opacity="0"></use></g></g><g><use xlink:href="#dl5yMDVNL" opacity="1" fill="#ffffff" fill-opacity="1"></use><g><use xlink:href="#dl5yMDVNL" opacity="1" fill-opacity="0" stroke="#000000" stroke-width="1" stroke-opacity="0"></use></g></g></g></g></svg>