<?xml version="1.0" encoding="UTF-8" standalone="no"?>
<!DOCTYPE svg PUBLIC "-//W3C//DTD SVG 1.1//EN" "http://www.w3.org/Graphics/SVG/1.1/DTD/svg11.dtd">
<svg version="1.1" xmlns="http://www.w3.org/2000/svg" xmlns:xlink="http://www.w3.org/1999/xlink" preserveAspectRatio="xMidYMid meet" viewBox="0 0 512 512" width="512" height="512"><defs><path d="M464.39 76.26C462.41 72.31 458.39 69.82 453.97 69.82C414.37 69.82 97.58 69.82 57.98 69.82C53.53 69.82 49.47 72.35 47.51 76.35C47.51 76.35 14.52 143.76 4.15 163.73C0.92 169.93 -0.47 176.47 0.14 182.67C4.24 224.57 39.12 256.17 81.27 256.17C98.55 256.17 114.92 250.8 128.67 240.82C143.34 264.44 169.42 279.46 197.74 279.46C219.91 279.46 240.78 270.5 255.98 254.94C271.17 270.5 292.04 279.46 314.21 279.46C342.53 279.46 368.61 264.44 383.29 240.82C397.04 250.8 413.4 256.17 430.68 256.17C473.16 256.17 508.07 224.3 511.88 182.06C512.42 176.06 511.13 169.74 508.15 163.77C499.4 146.27 468.77 85.01 464.39 76.26Z" id="c88899Ls1"></path><path d="M451.66 46.55C455.44 46.55 458.99 44.7 461.17 41.61C463.34 38.53 463.89 34.58 462.62 31.01C456.03 12.47 438.45 0 418.89 0C386.3 0 125.65 0 93.07 0C73.5 0 55.92 12.47 49.33 31.01C48.07 34.58 48.61 38.53 50.78 41.61C52.96 44.7 56.51 46.55 60.29 46.55C138.57 46.55 412.52 46.55 451.66 46.55Z" id="a2vErQFqVB"></path><path d="M451.47 276.79C432.98 280.53 413.67 279.24 395.72 272.85C391.68 271.39 387.19 272.29 384.01 275.15C350.85 305.06 299.82 310.13 261.81 288.16C258.19 286.07 253.76 286.07 250.15 288.16C212.12 310.12 161.08 305.04 127.94 275.15C124.74 272.29 120.24 271.4 116.24 272.85C98.29 279.24 79.02 280.53 60.51 276.79C57.1 276.12 53.55 276.97 50.82 279.18C48.11 281.38 46.55 284.7 46.55 288.19C46.55 305.88 46.55 447.39 46.55 465.08C46.55 490.75 67.42 511.63 93.09 511.63C108.22 511.63 229.24 511.63 244.36 511.63C250.8 511.63 256 506.43 256 499.99C256 484.9 256 364.18 256 349.09C256 342.67 261.22 337.45 267.64 337.45C279.31 337.49 372.68 337.79 384.35 337.82C390.77 337.82 395.98 343.04 395.98 349.46C395.98 364.55 395.98 485.27 395.98 500.36C395.98 506.8 401.19 512 407.62 512C408.75 511.96 417.76 511.67 418.89 511.63C444.56 511.63 465.43 490.76 465.43 465.09C465.43 447.4 465.43 305.88 465.43 288.19C465.43 284.7 463.86 281.38 461.16 279.18C458.44 276.96 454.89 276.09 451.47 276.79ZM197.82 430.18C190.84 430.18 134.98 430.18 128 430.18C121.57 430.18 116.36 424.97 116.36 418.54C116.36 411.56 116.36 355.7 116.36 348.72C116.36 342.29 121.57 337.08 128 337.08C134.98 337.08 190.84 337.08 197.82 337.08C204.24 337.08 209.45 342.29 209.45 348.72C209.45 353.38 209.45 376.65 209.45 418.54C205.98 426.3 202.1 430.18 197.82 430.18Z" id="d1Zl3Hojbc"></path></defs><g><g><g><use xlink:href="#c88899Ls1" opacity="1" fill="#ffffff" fill-opacity="1"></use><g><use xlink:href="#c88899Ls1" opacity="1" fill-opacity="0" stroke="#000000" stroke-width="1" stroke-opacity="0"></use></g></g><g><use xlink:href="#a2vErQFqVB" opacity="1" fill="#ffffff" fill-opacity="1"></use><g><use xlink:href="#a2vErQFqVB" opacity="1" fill-opacity="0" stroke="#000000" stroke-width="1" stroke-opacity="0"></use></g></g><g><use xlink:href="#d1Zl3Hojbc" opacity="1" fill="#ffffff" fill-opacity="1"></use><g><use xlink:href="#d1Zl3Hojbc" opacity="1" fill-opacity="0" stroke="#000000" stroke-width="1" stroke-opacity="0"></use></g></g></g></g></svg>