<?xml version="1.0" encoding="UTF-8" standalone="no"?>
<!DOCTYPE svg PUBLIC "-//W3C//DTD SVG 1.1//EN" "http://www.w3.org/Graphics/SVG/1.1/DTD/svg11.dtd">
<svg version="1.1" xmlns="http://www.w3.org/2000/svg" xmlns:xlink="http://www.w3.org/1999/xlink" preserveAspectRatio="xMidYMid meet" viewBox="0 0 512 512" width="512" height="512"><defs><path d="M298.67 117.33C298.67 115.2 298.67 104.53 298.67 85.33L213.33 85.33C213.33 104.53 213.33 115.2 213.33 117.33C213.33 129.11 203.78 138.67 192 138.67C180.22 138.67 170.67 129.11 170.67 117.33C170.67 114.13 170.67 88.53 170.67 85.33C170.67 61.8 189.8 42.67 213.33 42.67C221.87 42.67 290.13 42.67 298.67 42.67C322.2 42.67 341.33 61.8 341.33 85.33C341.33 88.53 341.33 114.13 341.33 117.33C341.33 129.11 331.78 138.67 320 138.67C308.22 138.67 298.67 129.11 298.67 117.33Z" id="a2W4RSUXsm"></path><path d="M271.15 328.11C267.31 329.6 261.76 330.67 256 330.67C250.24 330.67 244.69 329.6 239.57 327.68C223.6 322.36 143.74 295.77 0 247.89C0 345.56 0 399.82 0 410.67C0 443.09 26.24 469.33 58.67 469.33C98.13 469.33 413.87 469.33 453.33 469.33C485.76 469.33 512 443.09 512 410.67C512 399.82 512 345.56 512 247.89C383.54 290.67 303.26 317.41 271.15 328.11Z" id="d6wdBDQf8"></path><path d="M512 214.19C361.47 264.36 277.85 292.24 261.12 297.81C259.41 298.45 257.71 298.67 256 298.67C254.29 298.67 252.59 298.45 250.88 297.81C234.15 292.24 150.53 264.36 0 214.19C0 184.87 0 168.59 0 165.33C0 132.91 26.24 106.67 58.67 106.67C98.13 106.67 413.87 106.67 453.33 106.67C485.76 106.67 512 132.91 512 165.33C512 171.85 512 188.13 512 214.19Z" id="d10oZtfrXb"></path></defs><g><g><g><use xlink:href="#a2W4RSUXsm" opacity="1" fill="#ffffff" fill-opacity="1"></use><g><use xlink:href="#a2W4RSUXsm" opacity="1" fill-opacity="0" stroke="#000000" stroke-width="1" stroke-opacity="0"></use></g></g><g><use xlink:href="#d6wdBDQf8" opacity="1" fill="#ffffff" fill-opacity="1"></use><g><use xlink:href="#d6wdBDQf8" opacity="1" fill-opacity="0" stroke="#000000" stroke-width="1" stroke-opacity="0"></use></g></g><g><use xlink:href="#d10oZtfrXb" opacity="1" fill="#ffffff" fill-opacity="1"></use><g><use xlink:href="#d10oZtfrXb" opacity="1" fill-opacity="0" stroke="#000000" stroke-width="1" stroke-opacity="0"></use></g></g></g></g></svg>